# xmcd CD database file generated by OrangeCD 5.2
#
# Track frame offsets:
#	150
#	14021
#	27213
#	42303
#	52047
#	70166
#	79527
#	90916
#	108616
#	120808
#	134548
#	142397
#	158115
#	173207
#	206614
#	214527
#	225301
#	236518
#	249520
#	260210
#	276258
#	285457
#	299289
#
# Disc length: 4148 seconds
#
# Revision: 0
# Processed by: cddbd v1.5.1PL0 Copyright (c) Steve Scherf et al.
# Submitted via: OrangeCD 5.2
#
DISCID=4f103217
DTITLE=Johnny Cash - ABC Shows
DYEAR=2005
DGENRE=Country
TTITLE0=If Not For Love
TTITLE1=Bad News (With JC Riley)
TTITLE2=When Uncle Bill Quit Dope
TTITLE3=Destiny's Child
TTITLE4=Waltzing Matilda
TTITLE5=Mama Tried
TTITLE6=He'll Have To Go
TTITLE7=Home (With Roger Miller)
TTITLE8='T' For Texas and Woman Made A Fool Out Of Me (With Merle Haggard)
TTITLE9=We Wouldn't Trade It All (With June Carter Cash)
TTITLE10=The World You Gave Me (With June Carter Cash)
TTITLE11=Train Medley
TTITLE12=Poison Red Berries (With The Carter Family)
TTITLE13=I'll Take You Home Kathleen
TTITLE14=Hobo Bill
TTITLE15=Remember Me
TTITLE16=Seeing Nellie's Home (With Gordon Terry)
TTITLE17=Big Boss Man and Bad News (With Brenda Lee)
TTITLE18=Hickory Hollers Tramp (With OC Smith)
TTITLE19=Put Your Hand In The Hand
TTITLE20=Silver Threeds And Golden Needles (With Melanie)
TTITLE21=That's What I Like About The South (With Phil Harris)
TTITLE22=Waitin' (With Hank Williams Jr.)
EXTD=
EXTT0=
EXTT1=
EXTT2=
EXTT3=
EXTT4=
EXTT5=
EXTT6=
EXTT7=
EXTT8=
EXTT9=
EXTT10=
EXTT11=
EXTT12=
EXTT13=
EXTT14=
EXTT15=
EXTT16=
EXTT17=
EXTT18=
EXTT19=
EXTT20=
EXTT21=
EXTT22=
PLAYORDER=
